<svg width="176" height="73" viewBox="0 0 176 73" fill="none" xmlns="http://www.w3.org/2000/svg">
<path d="M90.4308 10.1347V1.34534C71.1714 1.34534 55.5566 17.086 55.5566 36.5029C55.5566 55.9189 71.1704 71.6616 90.4308 71.6616V62.8712C77.4712 62.8712 66.7201 53.368 64.6433 40.8982H81.7123V32.1088H64.6433C66.7201 19.6379 77.4712 10.1347 90.4308 10.1347Z" fill="#53B848"/>
<path d="M60.4 71.8229L20.8442 1.18219L11.479 1.34543L51.3586 71.9861L60.4 71.8229Z" fill="#53B848"/>
<path d="M7.76632 1.18219L47.1611 71.8229L42.4785 71.6617L3.24463 1.34543L7.76632 1.18219Z" fill="#53B848"/>
<path d="M142.743 62.8712L138.384 71.6616H153.641C164.475 71.6616 173.259 62.8073 173.259 51.8847C173.259 40.961 164.476 32.1088 153.641 32.1088C147.623 32.1088 142.743 27.1894 142.743 21.1223C142.743 15.0541 147.623 10.1358 153.641 10.1358V1.34534C142.808 1.34534 134.025 10.1976 134.025 21.1212C134.025 32.0429 142.807 40.8982 153.641 40.8982C159.66 40.8982 164.54 45.8165 164.54 51.8847C164.54 57.9518 159.66 62.8712 153.641 62.8712H142.743Z" fill="#53B848"/>
<path d="M117.846 62.8712C125.09 56.4289 129.665 47.0079 129.665 36.5029C129.665 17.086 114.051 1.34534 94.7905 1.34534V10.1347C109.236 10.1347 120.946 21.9394 120.946 36.5029C120.946 51.0654 109.236 62.8712 94.7905 62.8712V71.6616L134.186 71.3351L138.867 62.3835L117.846 62.8712Z" fill="#53B848"/>
<path d="M41.5611 30.9509L59.9154 1.34534H51.1968L37.4316 23.5495L41.5611 30.9509Z" fill="#53B848"/>
<path d="M23.6657 45.7548L7.60547 71.6617H16.323L27.7952 53.1572L23.6657 45.7548Z" fill="#53B848"/>
</svg>
